<?xml version="1.0" encoding="UTF-8"?>
<svg xmlns="http://www.w3.org/2000/svg" xmlns:xlink="http://www.w3.org/1999/xlink" width="98px" height="98px" viewBox="0 0 137 137" version="1.1">

<circle cx="68.5" cy="68.5" r="68" fill="#A31D1D"/>

<g transform="translate(18,12) scale(0.85)">

<rect x="0" y="0" width="127" height="126" style="fill:rgb(100%,100%,100%);fill-opacity:0.0117647;stroke:none;"/>
<path style="fill-rule:nonzero;fill:rgb(100%,100%,100%);fill-opacity:1;stroke-width:4;stroke-linecap:butt;stroke-linejoin:miter;stroke:rgb(100%,100%,100%);stroke-opacity:1;stroke-miterlimit:4;" d="M 36 15 C 38.760827 15 41.000492 12.761905 41.000492 10 C 41.000492 7.238095 38.760827 5 36 5 C 33.239173 5 30.999508 7.238095 30.999508 10 C 30.999508 12.761905 33.239173 15 36 15 Z M 36 15 " transform="matrix(2.645833,0,0,2.625,0,0)"/>
<path style="fill:none;stroke-width:4;stroke-linecap:round;stroke-linejoin:round;stroke:rgb(100%,100%,100%);stroke-opacity:1;stroke-miterlimit:4;" d="M 12 16.769345 L 20.003445 13.998512 L 30.999508 19.247024 L 20.003445 27.44494 L 30.999508 34.683036 L 24.008858 43.998512 " transform="matrix(2.645833,0,0,2.625,0,0)"/>
<path style="fill:none;stroke-width:4;stroke-linecap:round;stroke-linejoin:round;stroke:rgb(100%,100%,100%);stroke-opacity:1;stroke-miterlimit:4;" d="M 35.31939 21.642857 L 38.001969 23.10119 L 44.000492 17.465774 " transform="matrix(2.645833,0,0,2.625,0,0)"/>
<path style="fill:none;stroke-width:4;stroke-linecap:round;stroke-linejoin:round;stroke:rgb(100%,100%,100%);stroke-opacity:1;stroke-miterlimit:4;" d="M 16.848425 31.546131 L 13.879429 35.456845 L 4.003937 40.997024 " transform="matrix(2.645833,0,0,2.625,0,0)"/>
</g>
</svg>
