<?xml version="1.0" encoding="UTF-8"?>
<svg xmlns="http://www.w3.org/2000/svg" width="98px" height="98px" viewBox="0 0 137 137" version="1.1">
  <!-- Background Circle -->
  <circle cx="68.5" cy="68.5" r="68" fill="#A31D1D"/>
  
  <!-- Centered Group -->
  <g transform="translate(20,12) scale(0.85)">
    <path style="stroke:none;fill-rule:nonzero;fill:rgb(100%,100%,100%);fill-opacity:1;" d="M 48.960938 7.136719 L 16.023438 7.136719 L 16.023438 46.867188 C 29.578125 40.167969 40.847656 34.335938 48.941406 29.8125 L 48.941406 7.136719 Z"/>
    <path style="stroke:none;fill-rule:nonzero;fill:rgb(100%,75.686276%,5.098039%);fill-opacity:1;" d="M 48.960938 37.757812 C 40.453125 42.429688 29.429688 48.070312 16.046875 54.628906 C 16.046875 54.628906 15.710938 65.542969 15.105469 70.230469 C 27.085938 64.503906 39.636719 56.351562 48.984375 49.773438 L 48.984375 37.761719 Z"/>
    <path style="stroke:none;fill-rule:nonzero;fill:rgb(33.725491%,67.450982%,87.843138%);fill-opacity:1;" d="M 49.109375 68.945312 C 49.003906 68.589844 48.941406 58.300781 48.941406 58.300781 C 38.675781 65.292969 25.664062 73.382812 13.578125 78.613281 C 12.699219 82.554688 11.652344 86.394531 10.378906 90.066406 C 7.972656 96.933594 7.011719 102.804688 7.449219 107.371094 C 23.46875 95.171875 39.53125 79.089844 49.109375 68.945312 Z"/>
    <path style="stroke:none;fill-rule:nonzero;fill:rgb(100%,75.686276%,5.098039%);fill-opacity:1;" d="M 64.542969 81.125 L 54.378906 73.59375 C 44.238281 84.296875 27.023438 101.582031 9.9375 114.257812 C 11.863281 116.6875 16.191406 119.589844 26.941406 118.78125 C 28.613281 118.386719 37.210938 116.457031 47.730469 115.523438 C 55.46875 104.15625 61.007812 91.019531 64.542969 81.125 Z"/>
    <path style="stroke:none;fill-rule:nonzero;fill:rgb(33.725491%,67.450982%,87.843138%);fill-opacity:1;" d="M 70.441406 85.480469 C 67.21875 94.238281 62.554688 105.027344 56.386719 115.070312 C 60.589844 114.984375 64.5 115.171875 68.058594 115.609375 C 70.128906 115.855469 72.363281 116.066406 74.832031 116.167969 C 77.90625 108.410156 79.933594 99.402344 81.191406 92.328125 C 77.175781 90.171875 73.578125 87.867188 70.441406 85.480469 Z"/>
    <path style="stroke:none;fill-rule:nonzero;fill:rgb(100%,100%,100%);fill-opacity:1;" d="M 113 116.375 C 115.632812 116.375 117.976562 115.234375 119.273438 113.347656 C 121.742188 109.945312 117.472656 106.148438 111.074219 104.070312 C 106.183594 102.722656 97.167969 99.964844 87.738281 95.585938 C 86.542969 101.933594 84.789062 109.425781 82.257812 116.335938 C 82.589844 116.355469 113 116.375 113 116.375 Z"/>
  </g>
</svg>
