<?xml version="1.0" encoding="UTF-8"?>
<svg xmlns="http://www.w3.org/2000/svg" xmlns:xlink="http://www.w3.org/1999/xlink" width="98px" height="98px" viewBox="0 0 137 137" version="1.1">

<circle cx="68.5" cy="68.5" r="68" fill="#A31D1D"/>

<g transform="translate(20,12) scale(0.85)">

<path style=" stroke:none;fill-rule:nonzero;fill:rgb(100%,100%,100%);fill-opacity:1;" d="M 25.074219 75.539062 C 28.699219 75.539062 31.511719 72.527344 31.511719 68.65625 C 31.511719 65.695312 27.945312 60.027344 26.832031 58.339844 C 26.46875 57.757812 25.828125 57.398438 25.128906 57.398438 C 24.40625 57.398438 23.765625 57.730469 23.375 58.285156 C 22.175781 59.972656 18.273438 65.695312 18.273438 68.683594 C 18.273438 72.414062 21.394531 75.539062 25.074219 75.539062 Z M 24.992188 63.375 C 26.300781 65.640625 27.332031 67.851562 27.304688 68.683594 C 27.304688 70.007812 26.46875 71.390625 25.046875 71.390625 C 23.679688 71.390625 22.425781 70.09375 22.425781 68.683594 C 22.425781 67.9375 23.515625 65.75 24.992188 63.375 Z M 24.992188 63.375 "/>
<path style=" stroke:none;fill-rule:nonzero;fill:rgb(100%,100%,100%);fill-opacity:1;" d="M 19.917969 19.960938 C 18.777344 19.792969 17.714844 20.59375 17.550781 21.730469 C 16.742188 27.480469 15.542969 31.296875 13.453125 34.945312 C 12.894531 35.941406 13.230469 37.1875 14.234375 37.765625 C 14.566406 37.960938 14.902344 38.042969 15.265625 38.042969 C 15.988281 38.042969 16.683594 37.65625 17.101562 37.019531 C 20.03125 31.90625 21.0625 26.929688 21.703125 22.308594 C 21.871094 21.175781 21.0625 20.125 19.917969 19.960938 Z M 19.917969 19.960938 "/>
<path style=" stroke:none;fill-rule:nonzero;fill:rgb(100%,100%,100%);fill-opacity:1;" d="M 120.535156 78.359375 L 112.5625 78.359375 L 112.8125 73.578125 L 112.8125 73.464844 C 112.8125 66.222656 110.027344 59.417969 105.511719 55.6875 C 101.050781 52.089844 95.199219 52.230469 90.542969 56.019531 C 90.320312 56.183594 90.125 56.347656 89.929688 56.515625 C 87.285156 51.566406 83.269531 48.605469 78.585938 48.21875 L 78.421875 48.21875 C 73.960938 48.21875 69.695312 51.152344 66.9375 55.90625 C 66.882812 55.851562 66.824219 55.796875 66.769531 55.742188 L 66.601562 55.601562 C 61.699219 52.007812 55.984375 52.175781 51.328125 56.019531 C 50.742188 56.488281 50.1875 57.039062 49.65625 57.648438 L 49.65625 54.910156 C 49.65625 47.804688 46.730469 41.140625 43.914062 34.699219 C 41.460938 29.085938 39.121094 23.777344 39.121094 18.910156 L 39.121094 18.023438 L 40.851562 18.023438 C 41.992188 18.023438 42.941406 17.082031 42.941406 15.949219 L 42.941406 6.769531 C 42.941406 5.636719 41.992188 4.695312 40.851562 4.695312 L 8.910156 4.695312 C 7.765625 4.695312 6.820312 5.636719 6.820312 6.769531 L 6.820312 15.949219 C 6.820312 17.082031 7.765625 18.023438 8.910156 18.023438 L 10.972656 18.023438 L 10.972656 18.855469 C 10.804688 23.417969 8.464844 28.476562 5.953125 33.8125 C 2.777344 40.617188 -0.539062 47.667969 0.0742188 54.996094 L 0.0742188 105.265625 C 0.0742188 108.527344 1.214844 111.875 3.363281 114.917969 C 5.117188 117.378906 9.269531 121.304688 13.0625 121.304688 L 37.03125 121.304688 C 41.183594 121.304688 44.5 117.902344 46.3125 115.496094 C 46.589844 116.132812 46.898438 116.742188 47.203125 117.320312 C 47.230469 117.378906 47.261719 117.433594 47.289062 117.460938 C 47.398438 117.625 47.511719 117.847656 47.648438 118.070312 C 48.375 119.285156 49.574219 121.304688 51.941406 121.304688 L 65.375 121.304688 C 67.746094 121.304688 68.945312 119.285156 69.667969 118.070312 C 69.808594 117.847656 69.917969 117.625 70.03125 117.460938 L 70.058594 117.433594 C 72.121094 114.195312 74.101562 107.863281 74.964844 104.933594 L 81.652344 104.933594 C 82.601562 107.808594 84.886719 114.195312 87.253906 117.488281 C 87.367188 117.652344 87.476562 117.847656 87.589844 118.070312 C 88.316406 119.285156 89.511719 121.304688 91.882812 121.304688 C 91.9375 121.304688 92.019531 121.304688 92.078125 121.304688 C 95.980469 120.945312 101.246094 120.945312 105.511719 121.304688 C 105.566406 121.304688 105.621094 121.304688 105.679688 121.304688 C 108.019531 121.304688 109.582031 118.703125 110.136719 117.15625 C 113.480469 110.878906 114.847656 98.546875 115.238281 93.875 L 120.5625 93.875 C 124.242188 93.875 127 91.082031 127 87.402344 L 127 84.472656 C 126.972656 81.042969 124.15625 78.359375 120.535156 78.359375 Z M 93.109375 59.308594 L 93.191406 59.226562 C 96.3125 56.625 99.9375 56.488281 102.863281 58.867188 C 106.375 61.769531 108.632812 67.464844 108.632812 73.382812 L 108.355469 78.359375 L 87.839844 78.359375 L 87.757812 73.4375 C 87.785156 67.246094 89.875 61.6875 93.109375 59.308594 Z M 78.335938 52.367188 C 81.933594 52.699219 85.054688 55.464844 86.976562 60.027344 C 84.832031 63.539062 83.578125 68.296875 83.578125 73.4375 L 83.660156 78.359375 L 73.402344 78.359375 L 73.597656 73.550781 L 73.597656 73.464844 C 73.597656 68.40625 72.175781 63.316406 69.78125 59.5 C 71.730469 55.242188 75.074219 52.421875 78.335938 52.367188 Z M 54.003906 59.253906 C 57.125 56.683594 60.777344 56.542969 64.039062 58.894531 C 67.328125 61.9375 69.445312 67.632812 69.445312 73.410156 L 69.222656 78.359375 L 48.765625 78.359375 L 48.570312 73.410156 C 48.597656 67.550781 50.742188 61.878906 54.003906 59.253906 Z M 11 8.84375 L 38.757812 8.84375 L 38.757812 13.875 L 11 13.875 Z M 9.773438 35.582031 C 12.449219 29.832031 14.984375 24.410156 15.179688 18.992188 C 15.179688 18.964844 15.179688 18.9375 15.179688 18.9375 L 15.179688 18.078125 L 34.96875 18.078125 L 34.96875 18.9375 C 34.96875 24.660156 37.449219 30.355469 40.097656 36.386719 C 41.796875 40.285156 43.523438 44.238281 44.554688 48.246094 L 4.839844 48.246094 C 5.816406 44.015625 7.820312 39.757812 9.773438 35.582031 Z M 4.28125 52.394531 L 45.363281 52.394531 C 45.449219 53.253906 45.503906 54.109375 45.503906 54.941406 L 45.503906 65.722656 C 44.78125 68.15625 44.390625 70.785156 44.390625 73.464844 L 44.585938 78.386719 L 38.144531 78.386719 C 34.800781 78.386719 32.070312 81.125 32.070312 84.5 L 32.070312 84.996094 L 4.308594 84.996094 L 4.308594 54.941406 C 4.308594 54.882812 4.308594 54.828125 4.308594 54.773438 C 4.253906 53.972656 4.226562 53.195312 4.28125 52.394531 Z M 44.027344 111.238281 C 43.71875 111.765625 43.441406 112.289062 43.246094 112.675781 C 41.210938 115.496094 38.925781 117.183594 37.058594 117.183594 L 13.089844 117.183594 C 11.585938 117.183594 8.464844 114.886719 6.820312 112.566406 C 5.175781 110.214844 4.28125 107.699219 4.28125 105.292969 L 4.28125 89.144531 L 32.265625 89.144531 C 32.960938 91.9375 35.277344 93.929688 38.144531 93.929688 L 41.351562 93.929688 C 41.769531 97.136719 42.773438 104.242188 44.527344 110.382812 C 44.363281 110.628906 44.195312 110.933594 44.027344 111.238281 Z M 106.347656 115.359375 C 106.292969 115.46875 106.234375 115.578125 106.207031 115.691406 C 106.011719 116.269531 105.621094 116.878906 105.371094 117.15625 C 101.078125 116.824219 95.921875 116.824219 91.992188 117.15625 C 91.769531 116.933594 91.410156 116.328125 91.214844 115.996094 C 91.046875 115.746094 90.90625 115.46875 90.738281 115.191406 C 90.710938 115.164062 90.710938 115.136719 90.683594 115.109375 C 88.007812 111.433594 85.222656 102.335938 85.191406 102.25 C 84.914062 101.367188 84.105469 100.785156 83.1875 100.785156 L 73.375 100.785156 C 72.429688 100.785156 71.589844 101.421875 71.367188 102.335938 C 70.699219 104.878906 68.496094 112.125 66.546875 115.21875 C 66.378906 115.46875 66.210938 115.746094 66.074219 115.996094 C 65.878906 116.355469 65.488281 116.960938 65.265625 117.183594 L 52.109375 117.183594 C 51.886719 116.960938 51.496094 116.355469 51.300781 115.996094 C 51.160156 115.773438 51.023438 115.523438 50.882812 115.277344 C 47.984375 109.910156 46.257812 98.628906 45.617188 93.902344 L 111.085938 93.902344 C 110.582031 98.601562 109.300781 109.996094 106.347656 115.359375 Z M 122.792969 87.429688 C 122.792969 88.839844 121.898438 89.753906 120.535156 89.753906 L 38.144531 89.753906 C 37.058594 89.753906 36.25 88.757812 36.25 87.429688 L 36.25 84.5 C 36.25 83.421875 37.113281 82.535156 38.144531 82.535156 L 120.535156 82.535156 C 121.84375 82.535156 122.792969 83.367188 122.792969 84.5 Z M 122.792969 87.429688 "/>
<path style=" stroke:none;fill-rule:nonzero;fill:rgb(100%,100%,100%);fill-opacity:1;" d="M 14.789062 42.191406 C 14.789062 41.046875 13.855469 40.117188 12.699219 40.117188 C 11.542969 40.117188 10.609375 41.046875 10.609375 42.191406 C 10.609375 43.335938 11.542969 44.265625 12.699219 44.265625 C 13.855469 44.265625 14.789062 43.335938 14.789062 42.191406 Z M 14.789062 42.191406 "/>
</g>
</svg>
