<?xml version="1.0" encoding="UTF-8"?>
<svg xmlns="http://www.w3.org/2000/svg" xmlns:xlink="http://www.w3.org/1999/xlink" width="98px" height="98px" viewBox="0 0 137 137" version="1.1">

<circle cx="68.5" cy="68.5" r="68" fill="#A31D1D"/>

<g transform="translate(15.5,11) scale(0.85)">

<path style="stroke-width:1; stroke:none;fill-rule:nonzero;fill:rgb(100%,100%,100%);fill-opacity:1;" d="M 3.679688 71.492188 C 7.597656 71.972656 13.03125 73.648438 13.03125 75.535156 C 13.03125 76.0625 13.359375 76.535156 13.851562 76.722656 C 14.339844 76.910156 14.910156 76.777344 15.265625 76.382812 C 15.332031 76.316406 22.164062 68.957031 35.480469 68.957031 C 49.351562 68.957031 57.292969 75.464844 57.292969 77.230469 C 57.292969 77.84375 57.734375 78.371094 58.339844 78.480469 C 58.953125 78.59375 59.546875 78.261719 59.773438 77.6875 C 59.820312 77.558594 64.660156 65.339844 72.402344 65.339844 C 72.429688 65.339844 72.457031 65.339844 72.472656 65.339844 C 76.46875 65.386719 83.664062 65.449219 88.054688 70.796875 C 88.550781 71.480469 88.871094 71.910156 88.960938 72.035156 C 89.375 72.601562 90.160156 72.722656 90.726562 72.328125 C 91.296875 71.933594 91.449219 71.167969 91.078125 70.582031 C 90.773438 70.113281 90.453125 69.679688 90.121094 69.265625 C 85.867188 63.371094 68.1875 38.332031 68.1875 29.058594 C 68.1875 28.5625 67.902344 28.113281 67.449219 27.902344 C 67 27.691406 66.46875 27.761719 66.085938 28.078125 C 65.9375 28.195312 51.371094 40.011719 40.046875 30.726562 C 39.914062 30.585938 36.777344 27.214844 38.851562 24.523438 C 39.089844 24.210938 39.167969 23.804688 39.070312 23.421875 C 38.96875 23.042969 38.695312 22.730469 38.328125 22.574219 C 38.304688 22.566406 36.242188 21.675781 35.601562 19.792969 C 35.179688 18.5625 35.441406 17.105469 36.382812 15.464844 C 39.863281 9.375 45.878906 4.183594 46.078125 3.996094 C 46.109375 3.957031 49.121094 0.582031 56.039062 4.289062 C 56.941406 4.769531 58.011719 5.332031 59.210938 5.960938 C 68.480469 10.800781 85.726562 19.804688 92.375 29.148438 C 93.78125 31.117188 95.578125 33.371094 97.667969 35.976562 C 106.992188 47.628906 121.050781 65.214844 121.863281 86.082031 C 121.222656 87.460938 117.460938 94.769531 107.5625 100.78125 C 97.429688 106.933594 78.589844 112.964844 46.429688 106.714844 C 46.097656 106.652344 45.730469 106.722656 45.441406 106.925781 C 45.152344 107.125 44.960938 107.433594 44.914062 107.785156 C 44.898438 107.882812 43.398438 117.882812 37.960938 123.871094 C 37.484375 124.390625 37.527344 125.195312 38.054688 125.667969 C 38.300781 125.886719 38.609375 125.992188 38.914062 125.992188 C 39.265625 125.992188 39.613281 125.851562 39.871094 125.570312 C 44.660156 120.289062 46.605469 112.527344 47.21875 109.453125 C 56.371094 111.160156 64.488281 111.886719 71.679688 111.886719 C 113.648438 111.882812 124.230469 87.089844 124.339844 86.800781 C 124.410156 86.636719 124.4375 86.457031 124.433594 86.285156 C 123.726562 64.445312 109.25 46.359375 99.683594 34.390625 C 97.613281 31.8125 95.84375 29.585938 94.488281 27.675781 C 87.484375 17.832031 69.875 8.640625 60.417969 3.703125 C 59.222656 3.078125 58.160156 2.523438 57.265625 2.042969 C 48.550781 -2.632812 44.304688 2.136719 44.273438 2.203125 C 44.011719 2.421875 37.863281 7.722656 34.164062 14.203125 C 32.839844 16.515625 32.511719 18.679688 33.191406 20.632812 C 33.800781 22.386719 35.09375 23.546875 36.082031 24.210938 C 34.648438 27.441406 36.734375 30.941406 38.308594 32.574219 C 48.78125 41.167969 61.25 34.445312 65.890625 31.359375 C 67.5625 40.046875 77.386719 55.382812 83.691406 64.546875 C 79.511719 62.847656 75.082031 62.800781 72.289062 62.777344 C 65.296875 62.6875 60.574219 70.222656 58.527344 74.265625 C 55.273438 70.460938 46.457031 66.382812 35.503906 66.382812 C 24.527344 66.382812 17.675781 70.917969 14.851562 73.277344 C 12.53125 70.148438 5.617188 69.136719 4.011719 68.941406 C 3.324219 68.851562 2.671875 69.351562 2.582031 70.054688 C 2.476562 70.769531 2.976562 71.40625 3.679688 71.492188 Z M 3.679688 71.492188 "/>
<path style="stroke-width:1; stroke:none;fill-rule:nonzero;fill:rgb(100%,100%,100%);fill-opacity:1;" d="M 78.871094 100.632812 C 81.53125 100.632812 84.296875 100.253906 86.945312 99.230469 C 91.90625 97.324219 95.554688 93.503906 97.820312 87.886719 C 98.085938 87.234375 97.765625 86.492188 97.113281 86.230469 C 96.457031 85.96875 95.707031 86.285156 95.453125 86.941406 C 93.472656 91.875 90.285156 95.210938 86.03125 96.855469 C 76.785156 100.425781 65.238281 95.019531 65.128906 94.964844 C 64.488281 94.664062 63.722656 94.925781 63.417969 95.558594 C 63.109375 96.191406 63.375 96.949219 64.015625 97.257812 C 64.386719 97.4375 71.175781 100.632812 78.871094 100.632812 Z M 78.871094 100.632812 "/>
</g>
</svg>
