<?xml version="1.0" encoding="UTF-8"?>
<svg xmlns="http://www.w3.org/2000/svg" xmlns:xlink="http://www.w3.org/1999/xlink" width="98px" height="98px" viewBox="0 0 137 137" version="1.1">

<circle cx="68.5" cy="68.5" r="68" fill="#A31D1D"/>

<g transform="translate(15.5,11) scale(0.85)">

<path style=" stroke:none;fill-rule:nonzero;fill:rgb(100%,100%,100%);fill-opacity:1;" d="M 119.746094 107.191406 C 118.027344 105.199219 114.007812 97.226562 114.007812 97.226562 C 114.007812 97.226562 114.671875 96.378906 114.007812 93.523438 C 113.144531 89.824219 109.417969 90.105469 108.558594 89.253906 C 107.695312 88.398438 100.234375 74.875 99.660156 73.308594 C 99.085938 71.742188 92.773438 53.949219 92.773438 53.949219 C 90.652344 44.695312 86.742188 40.851562 81.582031 39.714844 C 76.460938 38.585938 73.6875 38.859375 71.390625 36.867188 C 69.957031 35.621094 70.007812 34.699219 70.007812 30.945312 C 70.007812 30.945312 71.554688 29.488281 72.683594 27.472656 C 73.972656 25.164062 74.605469 21.832031 74.605469 21.832031 C 75.898438 21.320312 75.914062 20.679688 76.472656 18.644531 C 77.246094 15.824219 77.191406 13.890625 75.125 13.890625 C 75.613281 4.691406 70.960938 0 63.5 0 C 56.042969 0 51.390625 4.691406 51.878906 13.890625 C 49.8125 13.890625 49.753906 15.824219 50.53125 18.644531 C 51.089844 20.679688 51.105469 21.320312 52.394531 21.835938 C 52.394531 21.835938 53.027344 25.164062 54.320312 27.472656 C 55.449219 29.488281 56.992188 30.945312 56.992188 30.945312 C 56.992188 34.699219 57.039062 35.625 55.609375 36.867188 C 53.316406 38.859375 50.539062 38.585938 45.421875 39.714844 C 40.257812 40.851562 36.351562 44.695312 34.230469 53.949219 C 34.230469 53.949219 27.917969 71.742188 27.34375 73.308594 C 26.769531 74.875 19.304688 88.398438 18.445312 89.253906 C 17.585938 90.105469 13.855469 89.824219 12.996094 93.523438 C 12.332031 96.378906 12.996094 97.226562 12.996094 97.226562 C 12.996094 97.226562 8.976562 105.199219 7.253906 107.191406 C 5.53125 109.183594 8.691406 110.609375 10.699219 108.042969 C 10.933594 108.390625 11.730469 108.640625 12.632812 108.761719 C 5.628906 116.453125 9.621094 126.472656 20.457031 125.984375 C 29.339844 125.582031 63.5 119.433594 63.5 119.433594 C 63.5 119.433594 97.65625 125.582031 106.546875 125.984375 C 117.382812 126.472656 121.375 116.453125 114.367188 108.761719 C 115.273438 108.640625 116.070312 108.390625 116.304688 108.042969 C 118.3125 110.605469 121.46875 109.183594 119.746094 107.191406 Z M 45.421875 94.460938 C 45.421875 94.460938 30.71875 98.800781 21.5625 102.886719 C 23.449219 99.40625 25.621094 94.664062 25.621094 94.664062 L 34.804688 81.566406 L 42.125 65.761719 C 42.125 65.761719 44.417969 74.304688 45.132812 75.585938 C 45.851562 76.867188 45.421875 94.460938 45.421875 94.460938 Z M 81.582031 94.460938 C 81.582031 94.460938 81.152344 76.867188 81.867188 75.585938 C 82.582031 74.304688 84.878906 65.761719 84.878906 65.761719 L 92.199219 81.566406 L 101.378906 94.664062 C 101.378906 94.664062 103.554688 99.40625 105.441406 102.886719 C 96.28125 98.800781 81.582031 94.460938 81.582031 94.460938 Z M 81.582031 94.460938 "/>
</g>
</svg>
